<svg width="134.866" height="70.803" viewBox="0 0 134.866 70.803" xmlns="http://www.w3.org/2000/svg"><g id="svgGroup" stroke-linecap="round" fill-rule="evenodd" font-size="9pt" stroke="#ffffff" stroke-width="0.25mm" fill="#ffffff" style="stroke:#ffffff;stroke-width:0.25mm;fill:#ffffff"><path d="M 56.691 55.616 L 56.691 43.213 L 36.134 43.213 L 36.134 35.401 L 65.284 35.401 L 65.284 59.131 A 36.408 36.408 0 0 1 54.3 66.734 A 43.083 43.083 0 0 1 51.881 67.75 A 46.32 46.32 0 0 1 38.101 70.694 A 54.232 54.232 0 0 1 34.669 70.801 A 44.682 44.682 0 0 1 25.84 69.969 A 33.019 33.019 0 0 1 16.163 66.456 A 29.55 29.55 0 0 1 4.2 54.078 A 36.043 36.043 0 0 1 0.694 43.515 A 48.796 48.796 0 0 1 0.001 35.108 A 50.299 50.299 0 0 1 0.969 24.932 Q 2.949 15.348 8.986 9.18 Q 17.97 0 34.23 0 A 55.714 55.714 0 0 1 41.577 0.456 Q 48.106 1.326 52.784 3.858 A 23.909 23.909 0 0 1 61.564 12.139 A 31.762 31.762 0 0 1 63.771 16.211 L 54.884 18.848 A 21.062 21.062 0 0 0 51.556 13.95 A 17.309 17.309 0 0 0 46.803 10.303 Q 41.652 7.618 33.986 7.618 A 31.565 31.565 0 0 0 26.772 8.393 Q 20.97 9.754 17.031 13.506 A 19.963 19.963 0 0 0 15.773 14.82 Q 10.435 20.923 9.621 31.251 A 49.078 49.078 0 0 0 9.474 35.108 A 41.166 41.166 0 0 0 10.264 43.422 Q 11.346 48.666 13.908 52.695 A 23.555 23.555 0 0 0 16.163 55.689 A 21.938 21.938 0 0 0 29.407 62.818 A 31.98 31.98 0 0 0 34.669 63.233 A 39.078 39.078 0 0 0 43.865 62.179 A 34.805 34.805 0 0 0 47.242 61.182 A 30.432 30.432 0 0 0 52.074 59.023 A 22.114 22.114 0 0 0 56.691 55.616 Z M 77.296 53.321 L 86.329 51.514 A 15.817 15.817 0 0 0 88.321 56.235 A 13.249 13.249 0 0 0 92.97 60.621 A 19.406 19.406 0 0 0 97.675 62.495 Q 101.582 63.526 106.788 63.526 A 42.345 42.345 0 0 0 112.031 63.223 Q 117.355 62.557 120.729 60.425 A 10.511 10.511 0 0 0 124.116 57.105 Q 125.636 54.662 125.636 51.319 Q 125.636 48.483 124.546 46.546 A 6.92 6.92 0 0 0 124.098 45.85 A 10.419 10.419 0 0 0 121.693 43.515 A 13.884 13.884 0 0 0 119.777 42.383 A 26.405 26.405 0 0 0 116.931 41.198 Q 115.458 40.678 113.769 40.245 A 45.044 45.044 0 0 0 113.136 40.088 A 710.808 710.808 0 0 0 109.071 39.124 A 948.06 948.06 0 0 0 104.591 38.086 A 149.418 149.418 0 0 1 100.777 37.178 Q 99.292 36.802 97.981 36.431 A 71.532 71.532 0 0 1 95.533 35.694 Q 91.896 34.522 89.552 33.228 Q 87.208 31.934 85.548 30.469 Q 83.107 28.223 81.813 25.245 A 15.379 15.379 0 0 1 80.716 21.288 A 20.222 20.222 0 0 1 80.519 18.409 A 18.403 18.403 0 0 1 81.47 12.35 A 15.25 15.25 0 0 1 87.282 4.786 A 22.839 22.839 0 0 1 93.739 1.687 Q 99.162 0 106.642 0 Q 118.044 0 124.222 3.398 A 17.79 17.79 0 0 1 124.562 3.589 A 17.149 17.149 0 0 1 130.864 10.05 Q 132.319 12.58 133.253 15.821 L 124.074 17.432 A 15.276 15.276 0 0 0 122.474 13.618 A 11.569 11.569 0 0 0 118.312 9.498 A 15.871 15.871 0 0 0 114.494 7.947 Q 112.613 7.436 110.353 7.21 A 38.389 38.389 0 0 0 106.544 7.032 A 40.175 40.175 0 0 0 101.989 7.273 Q 97.044 7.839 93.998 9.734 A 12.048 12.048 0 0 0 93.947 9.766 Q 89.989 12.256 89.635 16.974 A 12.67 12.67 0 0 0 89.601 17.92 A 9.832 9.832 0 0 0 89.879 20.318 A 7.268 7.268 0 0 0 91.285 23.169 Q 92.812 25.05 95.562 26.389 A 19.123 19.123 0 0 0 96.144 26.661 A 17.436 17.436 0 0 0 97.767 27.315 Q 100.458 28.27 105.603 29.494 A 221.653 221.653 0 0 0 108.79 30.225 A 342.575 342.575 0 0 1 116.603 32.154 A 47.797 47.797 0 0 1 123.017 34.298 A 43.645 43.645 0 0 1 123.878 34.668 Q 125.88 35.499 127.711 36.695 A 15.441 15.441 0 0 1 130.909 39.454 A 14.823 14.823 0 0 1 133.575 43.688 A 17.108 17.108 0 0 1 133.815 44.288 A 15.537 15.537 0 0 1 134.602 47.315 Q 134.865 48.951 134.865 50.831 A 19.377 19.377 0 0 1 133.728 57.614 Q 131.963 62.374 127.454 65.552 A 21.124 21.124 0 0 1 127.418 65.577 Q 119.972 70.801 106.447 70.801 Q 81.3 70.801 77.296 53.321 Z" vector-effect="non-scaling-stroke"/></g></svg>